<?xml version="1.0" encoding="utf-8"?>
<!-- Generator: Adobe Illustrator 27.5.0, SVG Export Plug-In . SVG Version: 6.00 Build 0)  -->
<svg version="1.1" id="Layer_1" xmlns="http://www.w3.org/2000/svg" xmlns:xlink="http://www.w3.org/1999/xlink" x="0px" y="0px"
	 viewBox="0 0 287.154 298.426" style="enable-background:new 0 0 287.154 298.426;" xml:space="preserve">
<g>
	<g>
		<g>
			<polygon style="fill:#FFE975;" points="88.013,149.213 32.433,149.213 4.643,101.079 32.433,52.946 88.013,52.946 
				115.803,101.079 			"/>
			<path style="fill:#EBA820;" d="M88.013,149.548h-55.58c-0.12,0-0.231-0.064-0.291-0.168l-27.79-48.133
				c-0.06-0.104-0.06-0.232,0-0.336l27.79-48.134c0.06-0.104,0.171-0.168,0.291-0.168h55.58c0.12,0,0.231,0.064,0.291,0.168
				l27.79,48.134c0.06,0.104,0.06,0.232,0,0.336l-27.79,48.133C88.243,149.484,88.132,149.548,88.013,149.548z M32.627,148.877
				h55.192l27.596-47.798L87.819,53.281H32.627L5.03,101.079L32.627,148.877z"/>
		</g>
		<g>
			<polygon style="fill:#FBB415;" points="85.473,144.937 34.83,144.937 9.509,101.079 34.83,57.222 85.473,57.222 110.794,101.079 
							"/>
			<path style="fill:#EBA820;" d="M85.473,145.273H34.83c-0.12,0-0.231-0.064-0.291-0.168L9.219,101.247
				c-0.06-0.104-0.06-0.232,0-0.336L34.54,57.054c0.06-0.104,0.171-0.168,0.291-0.168h50.642c0.12,0,0.231,0.064,0.291,0.168
				l25.321,43.858c0.06,0.104,0.06,0.232,0,0.336l-25.321,43.858C85.704,145.208,85.593,145.273,85.473,145.273z M35.024,144.601
				h50.255l25.128-43.522L85.279,57.557H35.024L9.897,101.079L35.024,144.601z"/>
		</g>
		<path style="opacity:0.38;fill:#F7981C;" d="M85.473,57.222H34.83L9.509,101.079l25.321,43.858h50.642l25.321-43.858
			L85.473,57.222z M96.526,107.835c-1.858,3.688-4.518,7.067-7.807,9.939c-3.051,2.665-6.779,4.723-10.784,6.189
			c-4.128,1.51-8.547,2.409-13.013,2.785c-4.55,0.383-9.166,0.223-13.666-0.466c-4.398-0.673-8.709-1.859-12.674-3.626
			c-4.243-1.891-7.998-4.49-11.065-7.624c-3.413-3.487-5.978-7.603-7.297-12.01c-0.657-2.193-1.001-4.457-0.987-6.721
			c0.016-2.416,0.523-4.792,1.305-7.11c0.803-2.38,1.911-4.683,3.26-6.875c0.42-0.682,0.865-1.353,1.331-2.013
			c1.397-2.941,3.215-5.742,5.506-8.244c2.797-3.055,6.313-5.614,10.425-7.292c4.205-1.716,8.811-2.67,13.439-3.058
			c4.869-0.409,9.822-0.193,14.616,0.638c4.613,0.8,9.138,2.184,13.145,4.312c3.89,2.066,7.246,4.893,9.933,8.046
			c2.694,3.16,4.715,6.728,5.971,10.484c1.238,3.701,1.736,7.58,1.467,11.422C99.361,100.468,98.316,104.283,96.526,107.835z"/>
		<path style="opacity:0.63;fill:#FEF59B;" d="M59.886,135.819c-0.864-0.748-1.876-1.357-2.887-1.882
			c-1.117-0.58-2.288-1.051-3.481-1.451c-2.392-0.801-4.863-1.322-7.295-1.982c-2.415-0.656-4.755-1.499-6.961-2.688
			c-2.08-1.122-4.013-2.498-5.81-4.031c-1.861-1.587-3.601-3.328-5.232-5.149c-1.793-2.002-3.378-4.18-4.848-6.428
			c-1.465-2.24-2.821-4.548-4.197-6.843c-0.546-0.911-1.068-1.849-1.681-2.717c-0.489-0.691-1.049-1.382-1.745-1.875
			c-0.628-0.446-1.429-0.662-2.097-0.165c-0.581,0.432-0.678,1.117-0.518,1.785c0.188,0.786,0.619,1.519,1.058,2.189
			c0.394,0.602,0.832,1.176,1.288,1.733c2.615,3.193,5.024,6.54,7.102,10.1c0.649,1.253,1.33,2.489,2.008,3.728
			c0.079,0.144,0.158,0.289,0.238,0.433c0.323,0.634,0.636,1.272,0.924,1.918c0.033,0.074,0.101,0.098,0.173,0.091
			c0.231,0.429,0.461,0.859,0.686,1.292c0.637,1.229,1.236,2.476,1.841,3.721c1.204,2.478,2.431,4.953,3.974,7.242
			c1.318,1.956,2.908,3.824,4.926,5.084c1,0.625,2.09,1.059,3.246,1.289c1.234,0.246,2.497,0.325,3.752,0.363
			c1.33,0.04,2.661,0.035,3.992,0.089c1.47,0.06,2.94,0.139,4.411,0.129c2.152-0.015,4.549-0.154,6.451-1.273
			c0.83-0.488,1.663-1.29,1.852-2.272C61.245,137.258,60.59,136.428,59.886,135.819z"/>
		<path style="opacity:0.63;fill:#FEF59B;" d="M74.557,135.128c-0.368-0.322-0.803-0.575-1.262-0.746
			c-0.944-0.352-1.98-0.387-2.981-0.278c-2.272,0.247-8.36,2.713-5.076,5.683c0.73,0.66,1.721,0.955,2.696,1.096
			c1.44,0.209,2.923,0.122,4.33-0.252c1-0.266,1.996-0.701,2.67-1.485C76,137.907,75.749,136.171,74.557,135.128z"/>
		<path style="opacity:0.63;fill:#FEF59B;" d="M39.307,136.626c-0.148-0.718-0.582-1.332-1.082-1.852
			c-0.519-0.54-1.109-1.001-1.686-1.476c-0.621-0.513-1.182-1.075-1.683-1.707c-1.127-1.421-2.003-3.047-2.855-4.641
			c-0.478-0.894-0.934-1.799-1.38-2.71c-0.293-0.599-0.541-1.224-0.892-1.793c-0.346-0.56-0.839-1.105-1.52-1.217
			c-0.344-0.057-0.704,0.035-0.911,0.334c-0.164,0.235-0.173,0.522-0.134,0.796c0.111,0.781,0.617,1.415,1.107,1.999
			c0.438,0.522,0.846,1.067,1.251,1.615c0.225,0.332,0.445,0.668,0.649,1.014c1.008,1.713,1.979,3.449,2.884,5.218
			c0.812,1.587,1.53,3.249,2.662,4.643c0.442,0.545,0.937,1.108,1.6,1.38c0.484,0.199,1.08,0.221,1.524-0.091
			C39.334,137.793,39.422,137.183,39.307,136.626z"/>
	</g>
	<g>
		<g>
			<polygon style="fill:#FFE975;" points="171.364,101.079 115.784,101.079 87.994,52.946 115.784,4.812 171.364,4.812 
				199.154,52.946 			"/>
			<path style="fill:#EBA820;" d="M171.364,101.415h-55.58c-0.12,0-0.231-0.064-0.291-0.168l-27.79-48.134
				c-0.06-0.104-0.06-0.232,0-0.336l27.79-48.134c0.06-0.104,0.171-0.168,0.291-0.168h55.58c0.12,0,0.231,0.064,0.291,0.168
				l27.79,48.134c0.06,0.104,0.06,0.232,0,0.336l-27.79,48.134C171.595,101.351,171.484,101.415,171.364,101.415z M115.978,100.743
				h55.192l27.596-47.798L171.17,5.148h-55.192L88.382,52.946L115.978,100.743z"/>
		</g>
		<g>
			<polygon style="fill:#FBB415;" points="168.824,96.803 118.182,96.803 92.86,52.946 118.182,9.088 168.824,9.088 194.145,52.946 
							"/>
			<path style="fill:#EBA820;" d="M168.824,97.139h-50.642c-0.12,0-0.231-0.064-0.291-0.168L92.57,53.113
				c-0.06-0.104-0.06-0.232,0-0.336L117.891,8.92c0.06-0.104,0.171-0.168,0.291-0.168h50.642c0.12,0,0.231,0.064,0.291,0.168
				l25.321,43.858c0.06,0.104,0.06,0.232,0,0.336l-25.321,43.858C169.055,97.075,168.944,97.139,168.824,97.139z M118.375,96.467
				h50.255l25.128-43.522L168.63,9.424h-50.255L93.248,52.946L118.375,96.467z"/>
		</g>
		<path style="opacity:0.38;fill:#F7981C;" d="M168.824,9.088h-50.642L92.86,52.946l25.321,43.858h50.642l25.321-43.858
			L168.824,9.088z M179.877,59.701c-1.858,3.688-4.518,7.067-7.807,9.94c-3.051,2.665-6.779,4.723-10.784,6.188
			c-4.128,1.51-8.547,2.409-13.013,2.785c-4.55,0.383-9.166,0.223-13.666-0.466c-4.398-0.673-8.709-1.859-12.673-3.626
			c-4.243-1.891-7.998-4.491-11.065-7.624c-3.413-3.487-5.978-7.603-7.297-12.01c-0.657-2.193-1.001-4.457-0.987-6.721
			c0.016-2.416,0.523-4.792,1.305-7.11c0.803-2.38,1.911-4.683,3.26-6.875c0.42-0.682,0.865-1.353,1.331-2.013
			c1.397-2.941,3.215-5.742,5.506-8.244c2.797-3.055,6.313-5.614,10.425-7.292c4.205-1.716,8.812-2.67,13.439-3.058
			c4.869-0.409,9.822-0.193,14.616,0.638c4.613,0.8,9.138,2.184,13.145,4.312c3.89,2.066,7.246,4.893,9.933,8.046
			c2.694,3.16,4.715,6.728,5.971,10.484c1.238,3.701,1.736,7.58,1.467,11.422C182.712,52.335,181.667,56.149,179.877,59.701z"/>
		<path style="opacity:0.63;fill:#FEF59B;" d="M143.237,87.685c-0.864-0.748-1.876-1.357-2.887-1.882
			c-1.117-0.58-2.288-1.051-3.481-1.451c-2.392-0.801-4.864-1.322-7.295-1.982c-2.415-0.656-4.755-1.499-6.962-2.688
			c-2.08-1.122-4.013-2.498-5.81-4.031c-1.86-1.587-3.601-3.328-5.232-5.149c-1.793-2.002-3.378-4.18-4.848-6.428
			c-1.465-2.24-2.821-4.548-4.197-6.843c-0.547-0.911-1.068-1.849-1.681-2.718c-0.489-0.691-1.049-1.382-1.744-1.875
			c-0.628-0.446-1.429-0.662-2.097-0.165c-0.581,0.432-0.678,1.117-0.518,1.785c0.188,0.786,0.619,1.519,1.058,2.189
			c0.395,0.602,0.832,1.176,1.288,1.733c2.615,3.193,5.024,6.54,7.102,10.1c0.649,1.253,1.33,2.49,2.008,3.728
			c0.079,0.144,0.158,0.289,0.238,0.433c0.323,0.634,0.636,1.272,0.924,1.918c0.033,0.074,0.101,0.098,0.173,0.091
			c0.231,0.429,0.461,0.859,0.686,1.292c0.637,1.229,1.236,2.476,1.841,3.721c1.204,2.478,2.431,4.953,3.974,7.243
			c1.318,1.956,2.908,3.824,4.926,5.084c1,0.624,2.09,1.059,3.246,1.289c1.234,0.246,2.497,0.325,3.752,0.363
			c1.331,0.04,2.661,0.035,3.992,0.089c1.47,0.06,2.94,0.139,4.411,0.129c2.152-0.015,4.549-0.154,6.451-1.273
			c0.83-0.488,1.663-1.29,1.852-2.272C144.596,89.125,143.941,88.295,143.237,87.685z"/>
		<path style="opacity:0.63;fill:#FEF59B;" d="M157.908,86.995c-0.368-0.322-0.803-0.575-1.262-0.746
			c-0.944-0.352-1.98-0.387-2.981-0.278c-2.272,0.247-8.36,2.714-5.076,5.683c0.73,0.66,1.721,0.955,2.696,1.096
			c1.44,0.208,2.923,0.122,4.329-0.252c1-0.266,1.996-0.701,2.67-1.485C159.351,89.774,159.101,88.038,157.908,86.995z"/>
		<path style="opacity:0.63;fill:#FEF59B;" d="M122.658,88.493c-0.148-0.718-0.583-1.332-1.082-1.852
			c-0.519-0.54-1.109-1.001-1.686-1.476c-0.621-0.513-1.182-1.075-1.684-1.707c-1.126-1.421-2.003-3.047-2.855-4.641
			c-0.478-0.894-0.934-1.799-1.38-2.71c-0.293-0.599-0.541-1.224-0.892-1.793c-0.346-0.56-0.839-1.105-1.52-1.217
			c-0.344-0.057-0.703,0.035-0.911,0.333c-0.164,0.235-0.173,0.522-0.134,0.796c0.111,0.781,0.617,1.415,1.107,1.999
			c0.438,0.522,0.846,1.067,1.251,1.615c0.225,0.332,0.445,0.668,0.648,1.014c1.008,1.713,1.979,3.449,2.884,5.218
			c0.812,1.587,1.53,3.248,2.662,4.643c0.442,0.545,0.937,1.108,1.6,1.38c0.484,0.199,1.08,0.221,1.524-0.09
			C122.685,89.659,122.773,89.05,122.658,88.493z"/>
	</g>
	<g>
		<g>
			<polygon style="fill:#FFE975;" points="171.364,293.613 115.784,293.613 87.994,245.48 115.784,197.346 171.364,197.346 
				199.154,245.48 			"/>
			<path style="fill:#EBA820;" d="M171.364,293.949h-55.58c-0.12,0-0.231-0.064-0.291-0.168l-27.79-48.134
				c-0.06-0.104-0.06-0.232,0-0.336l27.79-48.134c0.06-0.104,0.171-0.168,0.291-0.168h55.58c0.12,0,0.231,0.064,0.291,0.168
				l27.79,48.134c0.06,0.104,0.06,0.232,0,0.336l-27.79,48.134C171.595,293.885,171.484,293.949,171.364,293.949z M115.978,293.278
				h55.192l27.596-47.798l-27.596-47.798h-55.192L88.382,245.48L115.978,293.278z"/>
		</g>
		<g>
			<polygon style="fill:#FBB415;" points="168.824,289.337 118.182,289.337 92.86,245.48 118.182,201.622 168.824,201.622 
				194.145,245.48 			"/>
			<path style="fill:#EBA820;" d="M168.824,289.673h-50.642c-0.12,0-0.231-0.064-0.291-0.168L92.57,245.648
				c-0.06-0.104-0.06-0.232,0-0.336l25.321-43.858c0.06-0.104,0.171-0.168,0.291-0.168h50.642c0.12,0,0.231,0.064,0.291,0.168
				l25.321,43.858c0.06,0.104,0.06,0.232,0,0.336l-25.321,43.858C169.055,289.609,168.944,289.673,168.824,289.673z
				 M118.375,289.002h50.255l25.128-43.522l-25.128-43.522h-50.255L93.248,245.48L118.375,289.002z"/>
		</g>
		<path style="opacity:0.38;fill:#F7981C;" d="M168.824,201.622h-50.642L92.86,245.48l25.321,43.858h50.642l25.321-43.858
			L168.824,201.622z M179.877,252.236c-1.858,3.688-4.518,7.067-7.807,9.939c-3.051,2.665-6.779,4.723-10.784,6.189
			c-4.128,1.51-8.547,2.409-13.013,2.785c-4.55,0.383-9.166,0.223-13.666-0.466c-4.398-0.673-8.709-1.859-12.673-3.626
			c-4.243-1.891-7.998-4.49-11.065-7.624c-3.413-3.487-5.978-7.603-7.297-12.01c-0.657-2.193-1.001-4.457-0.987-6.721
			c0.016-2.416,0.523-4.792,1.305-7.11c0.803-2.38,1.911-4.683,3.26-6.875c0.42-0.682,0.865-1.353,1.331-2.013
			c1.397-2.941,3.215-5.742,5.506-8.244c2.797-3.055,6.313-5.614,10.425-7.292c4.205-1.716,8.812-2.67,13.439-3.058
			c4.869-0.409,9.822-0.193,14.616,0.638c4.613,0.8,9.138,2.184,13.145,4.312c3.89,2.066,7.246,4.893,9.933,8.046
			c2.694,3.16,4.715,6.728,5.971,10.484c1.238,3.701,1.736,7.58,1.467,11.422C182.712,244.869,181.667,248.684,179.877,252.236z"/>
		<path style="opacity:0.63;fill:#FEF59B;" d="M143.237,280.22c-0.864-0.748-1.876-1.357-2.887-1.882
			c-1.117-0.58-2.288-1.051-3.481-1.451c-2.392-0.801-4.864-1.322-7.295-1.983c-2.415-0.656-4.755-1.499-6.962-2.688
			c-2.08-1.122-4.013-2.498-5.81-4.031c-1.86-1.587-3.601-3.328-5.232-5.149c-1.793-2.002-3.378-4.18-4.848-6.428
			c-1.465-2.24-2.821-4.548-4.197-6.843c-0.547-0.911-1.068-1.849-1.681-2.717c-0.489-0.691-1.049-1.382-1.744-1.875
			c-0.628-0.446-1.429-0.662-2.097-0.165c-0.581,0.432-0.678,1.117-0.518,1.785c0.188,0.786,0.619,1.519,1.058,2.189
			c0.395,0.602,0.832,1.176,1.288,1.733c2.615,3.193,5.024,6.54,7.102,10.1c0.649,1.253,1.33,2.49,2.008,3.728
			c0.079,0.144,0.158,0.289,0.238,0.433c0.323,0.634,0.636,1.272,0.924,1.918c0.033,0.074,0.101,0.098,0.173,0.091
			c0.231,0.429,0.461,0.859,0.686,1.292c0.637,1.229,1.236,2.476,1.841,3.721c1.204,2.478,2.431,4.953,3.974,7.242
			c1.318,1.956,2.908,3.824,4.926,5.084c1,0.624,2.09,1.059,3.246,1.289c1.234,0.246,2.497,0.325,3.752,0.363
			c1.331,0.04,2.661,0.035,3.992,0.089c1.47,0.06,2.94,0.139,4.411,0.129c2.152-0.015,4.549-0.154,6.451-1.273
			c0.83-0.488,1.663-1.29,1.852-2.272C144.596,281.659,143.941,280.829,143.237,280.22z"/>
		<path style="opacity:0.63;fill:#FEF59B;" d="M157.908,279.529c-0.368-0.322-0.803-0.575-1.262-0.746
			c-0.944-0.352-1.98-0.387-2.981-0.278c-2.272,0.247-8.36,2.713-5.076,5.683c0.73,0.66,1.721,0.955,2.696,1.096
			c1.44,0.208,2.923,0.122,4.329-0.252c1-0.266,1.996-0.701,2.67-1.485C159.351,282.308,159.101,280.572,157.908,279.529z"/>
		<path style="opacity:0.63;fill:#FEF59B;" d="M122.658,281.027c-0.148-0.717-0.583-1.332-1.082-1.852
			c-0.519-0.54-1.109-1.001-1.686-1.476c-0.621-0.513-1.182-1.075-1.684-1.707c-1.126-1.421-2.003-3.047-2.855-4.641
			c-0.478-0.894-0.934-1.799-1.38-2.71c-0.293-0.599-0.541-1.224-0.892-1.793c-0.346-0.56-0.839-1.105-1.52-1.217
			c-0.344-0.057-0.703,0.035-0.911,0.333c-0.164,0.235-0.173,0.522-0.134,0.797c0.111,0.78,0.617,1.415,1.107,1.999
			c0.438,0.522,0.846,1.067,1.251,1.615c0.225,0.332,0.445,0.668,0.648,1.014c1.008,1.713,1.979,3.449,2.884,5.218
			c0.812,1.587,1.53,3.249,2.662,4.643c0.442,0.545,0.937,1.108,1.6,1.38c0.484,0.199,1.08,0.221,1.524-0.091
			C122.685,282.194,122.773,281.584,122.658,281.027z"/>
	</g>
	<g>
		<g>
			<polygon style="fill:#FFE975;" points="254.721,149.213 199.141,149.213 171.351,101.079 199.141,52.946 254.721,52.946 
				282.511,101.079 			"/>
			<path style="fill:#EBA820;" d="M254.721,149.548h-55.58c-0.12,0-0.231-0.064-0.291-0.168l-27.79-48.133
				c-0.06-0.104-0.06-0.232,0-0.336l27.79-48.134c0.06-0.104,0.171-0.168,0.291-0.168h55.58c0.12,0,0.231,0.064,0.291,0.168
				l27.79,48.134c0.06,0.104,0.06,0.232,0,0.336l-27.79,48.133C254.952,149.484,254.841,149.548,254.721,149.548z M199.335,148.877
				h55.192l27.596-47.798l-27.596-47.798h-55.192l-27.596,47.798L199.335,148.877z"/>
		</g>
		<g>
			<polygon style="fill:#FBB415;" points="252.181,144.937 201.539,144.937 176.218,101.079 201.539,57.222 252.181,57.222 
				277.503,101.079 			"/>
			<path style="fill:#EBA820;" d="M252.181,145.273h-50.642c-0.12,0-0.231-0.064-0.291-0.168l-25.321-43.858
				c-0.06-0.104-0.06-0.232,0-0.336l25.321-43.858c0.06-0.104,0.171-0.168,0.291-0.168h50.642c0.12,0,0.231,0.064,0.291,0.168
				l25.321,43.858c0.06,0.104,0.06,0.232,0,0.336l-25.321,43.858C252.412,145.208,252.301,145.273,252.181,145.273z
				 M201.733,144.601h50.255l25.127-43.522l-25.127-43.522h-50.255l-25.128,43.522L201.733,144.601z"/>
		</g>
		<path style="opacity:0.38;fill:#F7981C;" d="M252.181,57.222h-50.642l-25.321,43.858l25.321,43.858h50.642l25.321-43.858
			L252.181,57.222z M263.234,107.835c-1.858,3.688-4.518,7.067-7.807,9.939c-3.051,2.665-6.779,4.723-10.784,6.189
			c-4.128,1.51-8.547,2.409-13.013,2.785c-4.55,0.383-9.166,0.223-13.666-0.466c-4.398-0.673-8.709-1.859-12.673-3.626
			c-4.243-1.891-7.998-4.49-11.065-7.624c-3.414-3.487-5.978-7.603-7.297-12.01c-0.657-2.193-1.001-4.457-0.987-6.721
			c0.016-2.416,0.523-4.792,1.305-7.11c0.803-2.38,1.911-4.683,3.26-6.875c0.42-0.682,0.865-1.353,1.331-2.013
			c1.397-2.941,3.215-5.742,5.506-8.244c2.797-3.055,6.313-5.614,10.425-7.292c4.205-1.716,8.811-2.67,13.439-3.058
			c4.869-0.409,9.822-0.193,14.616,0.638c4.614,0.8,9.138,2.184,13.145,4.312c3.89,2.066,7.246,4.893,9.933,8.046
			c2.694,3.16,4.714,6.728,5.971,10.484c1.238,3.701,1.736,7.58,1.467,11.422C266.069,100.468,265.024,104.283,263.234,107.835z"/>
		<path style="opacity:0.63;fill:#FEF59B;" d="M226.595,135.819c-0.864-0.748-1.876-1.357-2.887-1.882
			c-1.117-0.58-2.288-1.051-3.481-1.451c-2.392-0.801-4.863-1.322-7.295-1.982c-2.414-0.656-4.755-1.499-6.962-2.688
			c-2.08-1.122-4.013-2.498-5.81-4.031c-1.861-1.587-3.601-3.328-5.232-5.149c-1.794-2.002-3.378-4.18-4.848-6.428
			c-1.465-2.24-2.821-4.548-4.197-6.843c-0.547-0.911-1.068-1.849-1.681-2.717c-0.488-0.691-1.049-1.382-1.744-1.875
			c-0.628-0.446-1.428-0.662-2.097-0.165c-0.581,0.432-0.678,1.117-0.518,1.785c0.188,0.786,0.619,1.519,1.058,2.189
			c0.394,0.602,0.832,1.176,1.288,1.733c2.614,3.193,5.024,6.54,7.102,10.1c0.649,1.253,1.33,2.489,2.008,3.728
			c0.079,0.144,0.158,0.289,0.238,0.433c0.323,0.634,0.637,1.272,0.924,1.918c0.033,0.074,0.101,0.098,0.173,0.091
			c0.231,0.429,0.461,0.859,0.686,1.292c0.637,1.229,1.236,2.476,1.841,3.721c1.204,2.478,2.431,4.953,3.974,7.242
			c1.318,1.956,2.908,3.824,4.926,5.084c1,0.625,2.09,1.059,3.246,1.289c1.234,0.246,2.497,0.325,3.752,0.363
			c1.331,0.04,2.661,0.035,3.992,0.089c1.47,0.06,2.939,0.139,4.411,0.129c2.152-0.015,4.549-0.154,6.451-1.273
			c0.83-0.488,1.663-1.29,1.852-2.272C227.953,137.258,227.298,136.428,226.595,135.819z"/>
		<path style="opacity:0.63;fill:#FEF59B;" d="M241.266,135.128c-0.368-0.322-0.803-0.575-1.262-0.746
			c-0.944-0.352-1.98-0.387-2.981-0.278c-2.272,0.247-8.36,2.713-5.076,5.683c0.73,0.66,1.721,0.955,2.696,1.096
			c1.44,0.209,2.923,0.122,4.329-0.252c0.999-0.266,1.996-0.701,2.67-1.485C242.708,137.907,242.458,136.171,241.266,135.128z"/>
		<path style="opacity:0.63;fill:#FEF59B;" d="M206.016,136.626c-0.148-0.718-0.583-1.332-1.082-1.852
			c-0.519-0.54-1.109-1.001-1.686-1.476c-0.622-0.513-1.182-1.075-1.684-1.707c-1.126-1.421-2.003-3.047-2.855-4.641
			c-0.478-0.894-0.934-1.799-1.38-2.71c-0.293-0.599-0.541-1.224-0.892-1.793c-0.346-0.56-0.839-1.105-1.52-1.217
			c-0.344-0.057-0.704,0.035-0.911,0.334c-0.163,0.235-0.173,0.522-0.134,0.796c0.111,0.781,0.617,1.415,1.107,1.999
			c0.438,0.522,0.846,1.067,1.251,1.615c0.225,0.332,0.445,0.668,0.648,1.014c1.008,1.713,1.979,3.449,2.884,5.218
			c0.812,1.587,1.53,3.249,2.662,4.643c0.442,0.545,0.937,1.108,1.6,1.38c0.485,0.199,1.08,0.221,1.524-0.091
			C206.043,137.793,206.13,137.183,206.016,136.626z"/>
	</g>
	<g>
		<g>
			<g>
				<polygon style="fill:#FFE975;" points="88.013,245.48 32.433,245.48 4.643,197.346 32.433,149.213 88.013,149.213 
					115.803,197.346 				"/>
				<path style="fill:#EBA820;" d="M88.013,245.816h-55.58c-0.12,0-0.231-0.064-0.291-0.168l-27.79-48.134
					c-0.06-0.104-0.06-0.232,0-0.336l27.79-48.134c0.06-0.104,0.171-0.168,0.291-0.168h55.58c0.12,0,0.231,0.064,0.291,0.168
					l27.79,48.134c0.06,0.104,0.06,0.232,0,0.336l-27.79,48.134C88.243,245.752,88.132,245.816,88.013,245.816z M32.627,245.144
					h55.192l27.596-47.798l-27.596-47.798H32.627L5.03,197.346L32.627,245.144z"/>
			</g>
			<g>
				<polygon style="fill:#FBB415;" points="85.473,241.204 34.83,241.204 9.509,197.346 34.83,153.489 85.473,153.489 
					110.794,197.346 				"/>
				<path style="fill:#EBA820;" d="M85.473,241.54H34.83c-0.12,0-0.231-0.064-0.291-0.168L9.219,197.514
					c-0.06-0.104-0.06-0.232,0-0.336l25.321-43.858c0.06-0.104,0.171-0.168,0.291-0.168h50.642c0.12,0,0.231,0.064,0.291,0.168
					l25.321,43.858c0.06,0.104,0.06,0.232,0,0.336l-25.321,43.858C85.704,241.476,85.593,241.54,85.473,241.54z M35.024,240.868
					h50.255l25.128-43.522l-25.128-43.522H35.024L9.897,197.346L35.024,240.868z"/>
			</g>
			<path style="opacity:0.38;fill:#F7981C;" d="M85.473,153.489H34.83L9.509,197.346l25.321,43.858h50.642l25.321-43.858
				L85.473,153.489z M96.526,204.102c-1.858,3.688-4.518,7.067-7.807,9.939c-3.051,2.665-6.779,4.723-10.784,6.189
				c-4.128,1.51-8.547,2.409-13.013,2.785c-4.55,0.383-9.166,0.223-13.666-0.466c-4.398-0.673-8.709-1.859-12.674-3.626
				c-4.243-1.891-7.998-4.49-11.065-7.624c-3.413-3.487-5.978-7.603-7.297-12.01c-0.657-2.193-1.001-4.457-0.987-6.721
				c0.016-2.416,0.523-4.792,1.305-7.11c0.803-2.38,1.911-4.683,3.26-6.875c0.42-0.682,0.865-1.352,1.331-2.013
				c1.397-2.941,3.215-5.742,5.506-8.244c2.797-3.055,6.313-5.614,10.425-7.292c4.205-1.716,8.811-2.67,13.439-3.058
				c4.869-0.409,9.822-0.193,14.616,0.638c4.613,0.8,9.138,2.184,13.145,4.312c3.89,2.066,7.246,4.893,9.933,8.046
				c2.694,3.16,4.715,6.728,5.971,10.484c1.238,3.701,1.736,7.58,1.467,11.422C99.361,196.735,98.316,200.55,96.526,204.102z"/>
			<path style="opacity:0.63;fill:#FEF59B;" d="M59.886,232.086c-0.864-0.748-1.876-1.357-2.887-1.882
				c-1.117-0.58-2.288-1.051-3.481-1.451c-2.392-0.801-4.863-1.322-7.295-1.982c-2.415-0.656-4.755-1.499-6.961-2.688
				c-2.08-1.122-4.013-2.498-5.81-4.031c-1.861-1.587-3.601-3.328-5.232-5.149c-1.793-2.002-3.378-4.18-4.848-6.428
				c-1.465-2.24-2.821-4.548-4.197-6.843c-0.546-0.911-1.068-1.849-1.681-2.717c-0.489-0.691-1.049-1.382-1.745-1.875
				c-0.628-0.446-1.429-0.662-2.097-0.165c-0.581,0.432-0.678,1.117-0.518,1.785c0.188,0.786,0.619,1.519,1.058,2.189
				c0.394,0.602,0.832,1.176,1.288,1.733c2.615,3.193,5.024,6.54,7.102,10.1c0.649,1.253,1.33,2.489,2.008,3.728
				c0.079,0.144,0.158,0.289,0.238,0.433c0.323,0.634,0.636,1.272,0.924,1.918c0.033,0.074,0.101,0.098,0.173,0.091
				c0.231,0.429,0.461,0.859,0.686,1.292c0.637,1.229,1.236,2.476,1.841,3.721c1.204,2.478,2.431,4.953,3.974,7.242
				c1.318,1.956,2.908,3.824,4.926,5.084c1,0.624,2.09,1.059,3.246,1.289c1.234,0.246,2.497,0.325,3.752,0.363
				c1.33,0.04,2.661,0.035,3.992,0.089c1.47,0.06,2.94,0.139,4.411,0.129c2.152-0.015,4.549-0.154,6.451-1.273
				c0.83-0.488,1.663-1.29,1.852-2.272C61.245,233.525,60.59,232.695,59.886,232.086z"/>
			<path style="opacity:0.63;fill:#FEF59B;" d="M74.557,231.395c-0.368-0.322-0.803-0.575-1.262-0.746
				c-0.944-0.352-1.98-0.386-2.981-0.278c-2.272,0.247-8.36,2.714-5.076,5.683c0.73,0.66,1.721,0.955,2.696,1.096
				c1.44,0.208,2.923,0.122,4.33-0.252c1-0.266,1.996-0.701,2.67-1.485C76,234.174,75.749,232.438,74.557,231.395z"/>
			<path style="opacity:0.63;fill:#FEF59B;" d="M39.307,232.894c-0.148-0.718-0.582-1.332-1.082-1.852
				c-0.519-0.54-1.109-1.001-1.686-1.476c-0.621-0.513-1.182-1.075-1.683-1.707c-1.127-1.421-2.003-3.047-2.855-4.641
				c-0.478-0.894-0.934-1.799-1.38-2.71c-0.293-0.598-0.541-1.224-0.892-1.792c-0.346-0.56-0.839-1.105-1.52-1.217
				c-0.344-0.057-0.704,0.035-0.911,0.333c-0.164,0.235-0.173,0.522-0.134,0.797c0.111,0.781,0.617,1.415,1.107,1.999
				c0.438,0.522,0.846,1.067,1.251,1.615c0.225,0.332,0.445,0.668,0.649,1.014c1.008,1.713,1.979,3.449,2.884,5.218
				c0.812,1.587,1.53,3.248,2.662,4.643c0.442,0.545,0.937,1.108,1.6,1.38c0.484,0.199,1.08,0.221,1.524-0.091
				C39.334,234.06,39.422,233.45,39.307,232.894z"/>
		</g>
		<g>
			<g>
				<polygon style="fill:#FFE975;" points="171.364,197.346 115.784,197.346 87.994,149.213 115.784,101.079 171.364,101.079 
					199.154,149.213 				"/>
				<path style="fill:#EBA820;" d="M171.364,197.682h-55.58c-0.12,0-0.231-0.064-0.291-0.168l-27.79-48.134
					c-0.06-0.104-0.06-0.232,0-0.336l27.79-48.134c0.06-0.104,0.171-0.168,0.291-0.168h55.58c0.12,0,0.231,0.064,0.291,0.168
					l27.79,48.134c0.06,0.104,0.06,0.232,0,0.336l-27.79,48.134C171.595,197.618,171.484,197.682,171.364,197.682z M115.978,197.011
					h55.192l27.596-47.798l-27.596-47.798h-55.192l-27.596,47.798L115.978,197.011z"/>
			</g>
			<g>
				<polygon style="fill:#FBB415;" points="168.824,193.07 118.182,193.07 92.86,149.213 118.182,105.355 168.824,105.355 
					194.145,149.213 				"/>
				<path style="fill:#EBA820;" d="M168.824,193.406h-50.642c-0.12,0-0.231-0.064-0.291-0.168L92.57,149.38
					c-0.06-0.104-0.06-0.232,0-0.336l25.321-43.858c0.06-0.104,0.171-0.168,0.291-0.168h50.642c0.12,0,0.231,0.064,0.291,0.168
					l25.321,43.858c0.06,0.104,0.06,0.232,0,0.336l-25.321,43.858C169.055,193.342,168.944,193.406,168.824,193.406z
					 M118.375,192.735h50.255l25.128-43.522l-25.128-43.522h-50.255l-25.127,43.522L118.375,192.735z"/>
			</g>
			<path style="opacity:0.38;fill:#F7981C;" d="M168.824,105.355h-50.642L92.86,149.213l25.321,43.858h50.642l25.321-43.858
				L168.824,105.355z M179.877,155.968c-1.858,3.688-4.518,7.067-7.807,9.939c-3.051,2.665-6.779,4.723-10.784,6.189
				c-4.128,1.51-8.547,2.409-13.013,2.785c-4.55,0.383-9.166,0.223-13.666-0.466c-4.398-0.673-8.709-1.859-12.673-3.626
				c-4.243-1.891-7.998-4.49-11.065-7.624c-3.413-3.487-5.978-7.603-7.297-12.01c-0.657-2.193-1.001-4.457-0.987-6.721
				c0.016-2.416,0.523-4.792,1.305-7.11c0.803-2.38,1.911-4.683,3.26-6.875c0.42-0.682,0.865-1.353,1.331-2.013
				c1.397-2.941,3.215-5.742,5.506-8.244c2.797-3.055,6.313-5.614,10.425-7.292c4.205-1.716,8.812-2.67,13.439-3.058
				c4.869-0.409,9.822-0.193,14.616,0.638c4.613,0.8,9.138,2.184,13.145,4.312c3.89,2.066,7.246,4.893,9.933,8.046
				c2.694,3.16,4.715,6.728,5.971,10.484c1.238,3.701,1.736,7.58,1.467,11.422C182.712,148.602,181.667,152.416,179.877,155.968z"/>
			<path style="opacity:0.63;fill:#FEF59B;" d="M143.237,183.952c-0.864-0.748-1.876-1.357-2.887-1.882
				c-1.117-0.58-2.288-1.051-3.481-1.451c-2.392-0.801-4.864-1.322-7.295-1.982c-2.415-0.656-4.755-1.499-6.962-2.688
				c-2.08-1.122-4.013-2.498-5.81-4.031c-1.86-1.586-3.601-3.328-5.232-5.149c-1.793-2.002-3.378-4.18-4.848-6.428
				c-1.465-2.24-2.821-4.548-4.197-6.843c-0.547-0.911-1.068-1.849-1.681-2.717c-0.489-0.691-1.049-1.382-1.744-1.875
				c-0.628-0.446-1.429-0.662-2.097-0.165c-0.581,0.432-0.678,1.117-0.518,1.785c0.188,0.786,0.619,1.519,1.058,2.189
				c0.395,0.602,0.832,1.176,1.288,1.733c2.615,3.193,5.024,6.54,7.102,10.1c0.649,1.253,1.33,2.489,2.008,3.728
				c0.079,0.144,0.158,0.289,0.238,0.433c0.323,0.634,0.636,1.272,0.924,1.918c0.033,0.074,0.101,0.098,0.173,0.091
				c0.231,0.429,0.461,0.859,0.686,1.292c0.637,1.229,1.236,2.476,1.841,3.721c1.204,2.478,2.431,4.953,3.974,7.242
				c1.318,1.956,2.908,3.824,4.926,5.084c1,0.624,2.09,1.059,3.246,1.289c1.234,0.246,2.497,0.325,3.752,0.363
				c1.331,0.04,2.661,0.035,3.992,0.089c1.47,0.06,2.94,0.139,4.411,0.129c2.152-0.015,4.549-0.154,6.451-1.273
				c0.83-0.488,1.663-1.29,1.852-2.272C144.596,185.392,143.941,184.562,143.237,183.952z"/>
			<path style="opacity:0.63;fill:#FEF59B;" d="M157.908,183.262c-0.368-0.322-0.803-0.575-1.262-0.746
				c-0.944-0.352-1.98-0.387-2.981-0.278c-2.272,0.247-8.36,2.714-5.076,5.683c0.73,0.66,1.721,0.955,2.696,1.096
				c1.44,0.208,2.923,0.122,4.329-0.252c1-0.266,1.996-0.701,2.67-1.485C159.351,186.041,159.101,184.305,157.908,183.262z"/>
			<path style="opacity:0.63;fill:#FEF59B;" d="M122.658,184.76c-0.148-0.718-0.583-1.332-1.082-1.852
				c-0.519-0.54-1.109-1.001-1.686-1.476c-0.621-0.513-1.182-1.075-1.684-1.707c-1.126-1.421-2.003-3.047-2.855-4.641
				c-0.478-0.894-0.934-1.799-1.38-2.71c-0.293-0.599-0.541-1.224-0.892-1.793c-0.346-0.56-0.839-1.105-1.52-1.217
				c-0.344-0.057-0.703,0.035-0.911,0.334c-0.164,0.235-0.173,0.522-0.134,0.796c0.111,0.781,0.617,1.415,1.107,1.999
				c0.438,0.522,0.846,1.067,1.251,1.615c0.225,0.332,0.445,0.668,0.648,1.014c1.008,1.713,1.979,3.449,2.884,5.218
				c0.812,1.587,1.53,3.249,2.662,4.643c0.442,0.545,0.937,1.108,1.6,1.38c0.484,0.199,1.08,0.221,1.524-0.091
				C122.685,185.926,122.773,185.317,122.658,184.76z"/>
		</g>
		<g>
			<g>
				<polygon style="fill:#FFE975;" points="254.721,245.48 199.141,245.48 171.351,197.346 199.141,149.213 254.721,149.213 
					282.511,197.346 				"/>
				<path style="fill:#EBA820;" d="M254.721,245.816h-55.58c-0.12,0-0.231-0.064-0.291-0.168l-27.79-48.134
					c-0.06-0.104-0.06-0.232,0-0.336l27.79-48.134c0.06-0.104,0.171-0.168,0.291-0.168h55.58c0.12,0,0.231,0.064,0.291,0.168
					l27.79,48.134c0.06,0.104,0.06,0.232,0,0.336l-27.79,48.134C254.952,245.752,254.841,245.816,254.721,245.816z M199.335,245.144
					h55.192l27.596-47.798l-27.596-47.798h-55.192l-27.596,47.798L199.335,245.144z"/>
			</g>
			<g>
				<polygon style="fill:#FBB415;" points="252.181,241.204 201.539,241.204 176.218,197.346 201.539,153.489 252.181,153.489 
					277.503,197.346 				"/>
				<path style="fill:#EBA820;" d="M252.181,241.54h-50.642c-0.12,0-0.231-0.064-0.291-0.168l-25.321-43.858
					c-0.06-0.104-0.06-0.232,0-0.336l25.321-43.858c0.06-0.104,0.171-0.168,0.291-0.168h50.642c0.12,0,0.231,0.064,0.291,0.168
					l25.321,43.858c0.06,0.104,0.06,0.232,0,0.336l-25.321,43.858C252.412,241.476,252.301,241.54,252.181,241.54z M201.733,240.868
					h50.255l25.127-43.522l-25.127-43.522h-50.255l-25.128,43.522L201.733,240.868z"/>
			</g>
			<path style="opacity:0.38;fill:#F7981C;" d="M252.181,153.489h-50.642l-25.321,43.858l25.321,43.858h50.642l25.321-43.858
				L252.181,153.489z M263.234,204.102c-1.858,3.688-4.518,7.067-7.807,9.939c-3.051,2.665-6.779,4.723-10.784,6.189
				c-4.128,1.51-8.547,2.409-13.013,2.785c-4.55,0.383-9.166,0.223-13.666-0.466c-4.398-0.673-8.709-1.859-12.673-3.626
				c-4.243-1.891-7.998-4.49-11.065-7.624c-3.414-3.487-5.978-7.603-7.297-12.01c-0.657-2.193-1.001-4.457-0.987-6.721
				c0.016-2.416,0.523-4.792,1.305-7.11c0.803-2.38,1.911-4.683,3.26-6.875c0.42-0.682,0.865-1.352,1.331-2.013
				c1.397-2.941,3.215-5.742,5.506-8.244c2.797-3.055,6.313-5.614,10.425-7.292c4.205-1.716,8.811-2.67,13.439-3.058
				c4.869-0.409,9.822-0.193,14.616,0.638c4.614,0.8,9.138,2.184,13.145,4.312c3.89,2.066,7.246,4.893,9.933,8.046
				c2.694,3.16,4.714,6.728,5.971,10.484c1.238,3.701,1.736,7.58,1.467,11.422C266.069,196.735,265.024,200.55,263.234,204.102z"/>
			<path style="opacity:0.63;fill:#FEF59B;" d="M226.595,232.086c-0.864-0.748-1.876-1.357-2.887-1.882
				c-1.117-0.58-2.288-1.051-3.481-1.451c-2.392-0.801-4.863-1.322-7.295-1.982c-2.414-0.656-4.755-1.499-6.962-2.688
				c-2.08-1.122-4.013-2.498-5.81-4.031c-1.861-1.587-3.601-3.328-5.232-5.149c-1.794-2.002-3.378-4.18-4.848-6.428
				c-1.465-2.24-2.821-4.548-4.197-6.843c-0.547-0.911-1.068-1.849-1.681-2.717c-0.488-0.691-1.049-1.382-1.744-1.875
				c-0.628-0.446-1.428-0.662-2.097-0.165c-0.581,0.432-0.678,1.117-0.518,1.785c0.188,0.786,0.619,1.519,1.058,2.189
				c0.394,0.602,0.832,1.176,1.288,1.733c2.614,3.193,5.024,6.54,7.102,10.1c0.649,1.253,1.33,2.489,2.008,3.728
				c0.079,0.144,0.158,0.289,0.238,0.433c0.323,0.634,0.637,1.272,0.924,1.918c0.033,0.074,0.101,0.098,0.173,0.091
				c0.231,0.429,0.461,0.859,0.686,1.292c0.637,1.229,1.236,2.476,1.841,3.721c1.204,2.478,2.431,4.953,3.974,7.242
				c1.318,1.956,2.908,3.824,4.926,5.084c1,0.624,2.09,1.059,3.246,1.289c1.234,0.246,2.497,0.325,3.752,0.363
				c1.331,0.04,2.661,0.035,3.992,0.089c1.47,0.06,2.939,0.139,4.411,0.129c2.152-0.015,4.549-0.154,6.451-1.273
				c0.83-0.488,1.663-1.29,1.852-2.272C227.953,233.525,227.298,232.695,226.595,232.086z"/>
			<path style="opacity:0.63;fill:#FEF59B;" d="M241.266,231.395c-0.368-0.322-0.803-0.575-1.262-0.746
				c-0.944-0.352-1.98-0.386-2.981-0.278c-2.272,0.247-8.36,2.714-5.076,5.683c0.73,0.66,1.721,0.955,2.696,1.096
				c1.44,0.208,2.923,0.122,4.329-0.252c0.999-0.266,1.996-0.701,2.67-1.485C242.708,234.174,242.458,232.438,241.266,231.395z"/>
			<path style="opacity:0.63;fill:#FEF59B;" d="M206.016,232.894c-0.148-0.718-0.583-1.332-1.082-1.852
				c-0.519-0.54-1.109-1.001-1.686-1.476c-0.622-0.513-1.182-1.075-1.684-1.707c-1.126-1.421-2.003-3.047-2.855-4.641
				c-0.478-0.894-0.934-1.799-1.38-2.71c-0.293-0.598-0.541-1.224-0.892-1.792c-0.346-0.56-0.839-1.105-1.52-1.217
				c-0.344-0.057-0.704,0.035-0.911,0.333c-0.163,0.235-0.173,0.522-0.134,0.797c0.111,0.781,0.617,1.415,1.107,1.999
				c0.438,0.522,0.846,1.067,1.251,1.615c0.225,0.332,0.445,0.668,0.648,1.014c1.008,1.713,1.979,3.449,2.884,5.218
				c0.812,1.587,1.53,3.248,2.662,4.643c0.442,0.545,0.937,1.108,1.6,1.38c0.485,0.199,1.08,0.221,1.524-0.091
				C206.043,234.06,206.13,233.45,206.016,232.894z"/>
		</g>
	</g>
</g>
</svg>
